{"asset":{"version":"2.0","generator":"Blockbench 4.8.3 glTF exporter"},"scenes":[{"nodes":[1],"name":"blockbench_export"}],"scene":0,"nodes":[{"name":"audience","mesh":0},{"children":[0]}],"bufferViews":[{"buffer":0,"byteOffset":0,"byteLength":1344,"target":34962,"byteStride":12},{"buffer":0,"byteOffset":1344,"byteLength":1344,"target":34962,"byteStride":12},{"buffer":0,"byteOffset":2688,"byteLength":896,"target":34962,"byteStride":8},{"buffer":0,"byteOffset":3584,"byteLength":288,"target":34963}],"buffers":[{"byteLength":3872,"uri":"data:application/octet-stream;base64,"}],"accessors":[{"bufferView":0,"componentType":5126,"count":112,"max":[0.3125,0.3125,0.3125],"min":[-0.3125,-0.3125,-0.3125],"type":"VEC3"},{"bufferView":1,"componentType":5126,"count":112,"max":[0.9238795042037964,0.9238795042037964,0.9238795042037964],"min":[-0.9238795042037964,-0.9238795042037964,-0.9238795042037964],"type":"VEC3"},{"bufferView":2,"componentType":5126,"count":112,"max":[0.9419437646865845,0.9730336666107178],"min":[0.001150306430645287,0],"type":"VEC2"},{"bufferView":3,"componentType":5123,"count":144,"max":[111],"min":[0],"type":"SCALAR"}],"materials":[{"pbrMetallicRoughness":{"metallicFactor":0,"roughnessFactor":1,"baseColorTexture":{"index":0}},"alphaMode":"MASK","alphaCutoff":0.05,"doubleSided":true}],"textures":[{"sampler":0,"source":0,"name":"AD5"}],"samplers":[{"magFilter":9728,"minFilter":9728,"wrapS":33071,"wrapT":33071}],"images":[{"mimeType":"image/png","uri":"data:image/png;base64,"}],"meshes":[{"primitives":[{"mode":4,"attributes":{"POSITION":0,"NORMAL":1,"TEXCOORD_0":2},"indices":3,"material":0}]}]}