{"asset":{"version":"2.0","generator":"Blockbench 4.8.3 glTF exporter"},"scenes":[{"nodes":[3],"name":"blockbench_export"}],"scene":0,"nodes":[{"name":"pillar","mesh":0},{"rotation":[0,0,0.7071067811865475,0.7071067811865476],"name":"rope","mesh":1},{"name":"floor","mesh":2},{"children":[0,1,2]}],"bufferViews":[{"buffer":0,"byteOffset":0,"byteLength":228,"target":34962,"byteStride":12},{"buffer":0,"byteOffset":228,"byteLength":228,"target":34962,"byteStride":12},{"buffer":0,"byteOffset":456,"byteLength":152,"target":34962,"byteStride":8},{"buffer":0,"byteOffset":608,"byteLength":56,"target":34963},{"buffer":0,"byteOffset":664,"byteLength":96,"target":34962,"byteStride":12},{"buffer":0,"byteOffset":760,"byteLength":96,"target":34962,"byteStride":12},{"buffer":0,"byteOffset":856,"byteLength":64,"target":34962,"byteStride":8},{"buffer":0,"byteOffset":920,"byteLength":24,"target":34963},{"buffer":0,"byteOffset":944,"byteLength":468,"target":34962,"byteStride":12},{"buffer":0,"byteOffset":1412,"byteLength":468,"target":34962,"byteStride":12},{"buffer":0,"byteOffset":1880,"byteLength":312,"target":34962,"byteStride":8},{"buffer":0,"byteOffset":2192,"byteLength":80,"target":34963}],"buffers":[{"byteLength":2272,"uri":"data:application/octet-stream;base64,"}],"accessors":[{"bufferView":0,"componentType":5126,"count":19,"max":[0.0628640204668045,0.5625,-3.1373517513275146],"min":[-0.05597730353474617,1.1102230246251565e-15,-3.251338243484497],"type":"VEC3"},{"bufferView":1,"componentType":5126,"count":19,"max":[0.9588197469711304,1,0.9996573328971863],"min":[-0.9426414966583252,0,0],"type":"VEC3"},{"bufferView":2,"componentType":5126,"count":19,"max":[1,0.9947655200958252],"min":[0,0],"type":"VEC2"},{"bufferView":3,"componentType":5123,"count":27,"max":[18],"min":[0],"type":"SCALAR"},{"bufferView":4,"componentType":5126,"count":8,"max":[0.5270633101463318,-0.02132420241832733,-2.7954957485198975],"min":[0.4729367196559906,-1.4872634410858154,-3.2018728256225586],"type":"VEC3"},{"bufferView":5,"componentType":5126,"count":8,"max":[0.8665164113044739,0.12030035257339478,0.4844348728656769],"min":[-0.8665164113044739,0.12030035257339478,0.4844348728656769],"type":"VEC3"},{"bufferView":6,"componentType":5126,"count":8,"max":[0.24162499606609344,1],"min":[0,0],"type":"VEC2"},{"bufferView":7,"componentType":5123,"count":12,"max":[7],"min":[0],"type":"SCALAR"},{"bufferView":8,"componentType":5126,"count":39,"max":[3.1950578689575195,0,3.125],"min":[-3.1950578689575195,0,-3.21852445602417],"type":"VEC3"},{"bufferView":9,"componentType":5126,"count":39,"max":[0,1,0],"min":[0,1,0],"type":"VEC3"},{"bufferView":10,"componentType":5126,"count":39,"max":[0.9970383048057556,0.9868291616439819],"min":[0.002961718710139394,0],"type":"VEC2"},{"bufferView":11,"componentType":5123,"count":39,"max":[38],"min":[0],"type":"SCALAR"}],"materials":[{"pbrMetallicRoughness":{"metallicFactor":0,"roughnessFactor":1,"baseColorTexture":{"index":0}},"alphaMode":"MASK","alphaCutoff":0.05,"doubleSided":true},{"pbrMetallicRoughness":{"metallicFactor":0,"roughnessFactor":1,"baseColorTexture":{"index":1}},"alphaMode":"MASK","alphaCutoff":0.05,"doubleSided":true},{"pbrMetallicRoughness":{"metallicFactor":0,"roughnessFactor":1,"baseColorTexture":{"index":2}},"alphaMode":"MASK","alphaCutoff":0.05,"doubleSided":true}],"textures":[{"sampler":0,"source":0,"name":"pillar"},{"sampler":1,"source":1,"name":"rope"},{"sampler":2,"source":2,"name":"floortexture.png"}],"samplers":[{"magFilter":9728,"minFilter":9728,"wrapS":33071,"wrapT":33071},{"magFilter":9728,"minFilter":9728,"wrapS":33071,"wrapT":33071},{"magFilter":9728,"minFilter":9728,"wrapS":33071,"wrapT":33071}],"images":[{"mimeType":"image/png","uri":"data:image/png;base64,"},{"mimeType":"image/png","uri":"data:image/png;base64,"},{"mimeType":"image/png","uri":"data:image/png;base64,"}],"meshes":[{"primitives":[{"mode":4,"attributes":{"POSITION":0,"NORMAL":1,"TEXCOORD_0":2},"indices":3,"material":0}]},{"primitives":[{"mode":4,"attributes":{"POSITION":4,"NORMAL":5,"TEXCOORD_0":6},"indices":7,"material":1}]},{"primitives":[{"mode":4,"attributes":{"POSITION":8,"NORMAL":9,"TEXCOORD_0":10},"indices":11,"material":2}]}]}